<?xml version="1.0" standalone="no"?>
<svg viewBox="0 0 200 200" xmlns="http://www.w3.org/2000/svg">
  <path fill="#E8BFFF" d="M49.5,-69.2C61.4,-59.6,66.2,-41.3,72.2,-23.3C78.2,-5.3,85.4,12.4,79.9,25C74.5,37.5,56.2,44.9,40.8,56.1C25.4,67.3,12.7,82.1,-1.9,84.8C-16.6,87.5,-33.1,77.9,-44.9,65.6C-56.7,53.2,-63.7,38.1,-68.2,22.5C-72.8,6.9,-75,-9.1,-70.1,-22.4C-65.3,-35.8,-53.5,-46.5,-40.6,-55.8C-27.7,-65,-13.9,-72.8,2.5,-76.3C18.9,-79.7,37.7,-78.8,49.5,-69.2Z" transform="translate(100 100)" />
</svg>
